<svg xmlns="http://www.w3.org/2000/svg" xmlns:xlink="http://www.w3.org/1999/xlink" width="500" zoomAndPan="magnify" viewBox="0 0 375 374.999991" height="500" preserveAspectRatio="xMidYMid meet" version="1.0"><defs><g/><clipPath id="1dbabd0504"><path d="M 200.546875 136.960938 L 214.726562 136.960938 L 214.726562 151.140625 L 200.546875 151.140625 Z M 200.546875 136.960938 " clip-rule="nonzero"/></clipPath><clipPath id="5c304c2e6f"><path d="M 207.636719 136.960938 C 203.722656 136.960938 200.546875 140.136719 200.546875 144.050781 C 200.546875 147.964844 203.722656 151.140625 207.636719 151.140625 C 211.550781 151.140625 214.726562 147.964844 214.726562 144.050781 C 214.726562 140.136719 211.550781 136.960938 207.636719 136.960938 Z M 207.636719 136.960938 " clip-rule="nonzero"/></clipPath><clipPath id="979bb827ff"><path d="M 50.546875 232 L 200.546875 232 L 200.546875 251 L 50.546875 251 Z M 50.546875 232 " clip-rule="nonzero"/></clipPath><clipPath id="e07d384a2a"><path d="M 154.046875 162.792969 L 278.359375 162.792969 L 278.359375 193.949219 L 154.046875 193.949219 Z M 154.046875 162.792969 " clip-rule="nonzero"/></clipPath></defs><rect x="-37.5" width="450" fill="#ffffff" y="-37.499999" height="449.999989" fill-opacity="1"/><rect x="-37.5" width="450" fill="#ffffff" y="-37.499999" height="449.999989" fill-opacity="1"/><g clip-path="url(#1dbabd0504)"><g clip-path="url(#5c304c2e6f)"><path fill="#f1a830" d="M 200.546875 136.960938 L 214.726562 136.960938 L 214.726562 151.140625 L 200.546875 151.140625 Z M 200.546875 136.960938 " fill-opacity="1" fill-rule="nonzero"/></g></g><path fill="#0c2043" d="M 179.597656 224.042969 C 177.171875 223.488281 169.019531 221.382812 159.996094 220.027344 C 159.359375 215.179688 159.480469 214.820312 156.816406 212.195312 C 158.40625 213.308594 158.207031 221.023438 157.648438 225.117188 C 157.609375 221.660156 156.535156 219.988281 155.902344 219.273438 C 151.886719 218.121094 147.035156 217.84375 140.433594 218.238281 C 142.898438 214.34375 143.375 211.082031 141.867188 208.460938 C 145.085938 208.179688 151.207031 209.136719 160.15625 211.320312 C 161.546875 212.15625 164.566406 212.515625 165.5625 217.085938 C 165.523438 215.140625 165.203125 213.789062 164.25 212.355469 C 167.75 213.269531 171.644531 214.34375 175.898438 215.578125 C 179.597656 218.28125 180.828125 221.101562 179.597656 224.042969 Z M 172.957031 141.105469 C 174.347656 141.703125 175.261719 143.53125 175.460938 145.796875 L 177.011719 145.796875 C 177.410156 146.992188 177.371094 148.582031 177.011719 150.53125 C 177.648438 149.019531 177.925781 147.386719 177.726562 145.796875 C 177.449219 143.214844 176.21875 141.265625 175.460938 141.105469 Z M 171.40625 148.183594 C 171.84375 145.28125 171.046875 141.902344 168.863281 141.105469 C 166.914062 140.949219 167.152344 141.265625 166.515625 141.742188 C 167.03125 142.496094 167.429688 143.292969 167.351562 144.246094 C 167.113281 143.371094 166.792969 142.300781 166.199219 141.820312 L 163.214844 141.902344 C 163.773438 142.976562 162.621094 145.359375 162.183594 146.273438 C 162.777344 147.03125 162.820312 147.945312 162.859375 148.699219 C 162.816406 146.992188 163.214844 146.273438 164.089844 146.515625 C 164.527344 145.402344 165.042969 145.242188 165.679688 146.117188 C 166.914062 145.957031 167.707031 146.195312 168.027344 146.871094 C 168.304688 147.429688 168.742188 147.785156 169.339844 147.90625 C 169.65625 148.105469 169.933594 148.660156 170.175781 149.617188 C 170.175781 149.019531 170.09375 148.503906 169.894531 148.066406 C 170.371094 147.785156 170.890625 147.824219 171.40625 148.183594 Z M 185.71875 139.117188 C 187.628906 139.515625 189.457031 143.492188 189.65625 147.191406 C 190.171875 143.730469 187.945312 139 185.71875 139.117188 Z M 177.726562 139.914062 C 181.386719 139.515625 182.378906 148.742188 179.277344 152.320312 C 181.902344 148.222656 180.789062 140.707031 177.726562 139.914062 Z M 136.894531 146.117188 C 139.320312 144.921875 141.625 143.214844 143.933594 140.867188 C 147.511719 137.726562 151.128906 133.589844 156.097656 136.335938 C 154.746094 134.824219 152.519531 134.703125 150.53125 135.300781 C 146.636719 136.453125 142.5 140.113281 139.796875 141.1875 C 134.90625 143.015625 129.777344 143.96875 124.570312 144.007812 C 123.257812 145.042969 121.90625 146.117188 120.59375 147.308594 C 126.914062 148.660156 132.125 148.460938 136.894531 146.117188 Z M 137.371094 147.585938 C 137.214844 147.746094 136.976562 147.945312 136.695312 148.144531 C 136.417969 149.972656 135.105469 150.769531 134.46875 149.894531 C 135.105469 149.894531 135.78125 149.136719 136.300781 148.023438 C 134.351562 148.898438 132.441406 149.496094 130.929688 149.8125 C 131.089844 150.648438 131.605469 151.324219 132.5625 151.882812 C 133.199219 152.238281 133.914062 152.636719 134.707031 153.035156 C 135.820312 153.988281 136.855469 155.179688 137.769531 156.691406 C 139.71875 156.535156 139.519531 153.550781 141.90625 150.886719 C 143.375 149.417969 144.171875 147.507812 144.371094 145.121094 C 143.972656 144.050781 144.171875 143.09375 144.96875 142.339844 C 143.535156 144.167969 140.511719 146.117188 137.371094 147.585938 Z M 158.960938 143.132812 C 158.882812 143.214844 158.804688 143.292969 158.722656 143.371094 C 156.972656 144.765625 155.066406 145.558594 152.996094 145.839844 C 152.164062 145.597656 151.40625 144.527344 150.691406 142.539062 C 150.53125 141.027344 148.425781 140.429688 147.273438 140.90625 C 147.789062 140.90625 148.226562 140.90625 149.023438 141.265625 C 149.777344 141.542969 150.214844 142.140625 150.292969 143.015625 C 151.011719 144.964844 151.804688 146.078125 152.601562 146.277344 C 154.667969 146.035156 156.578125 145.203125 158.324219 143.851562 C 158.644531 143.570312 158.84375 143.332031 158.960938 143.132812 Z M 161.945312 141.625 L 161.945312 141.582031 L 161.902344 141.582031 L 161.863281 141.542969 L 161.824219 141.542969 L 161.824219 141.503906 C 161.226562 141.027344 160.234375 140.789062 158.84375 140.707031 L 158.644531 140.707031 L 158.601562 140.75 L 158.285156 140.75 L 158.246094 140.789062 L 158.085938 140.789062 L 158.085938 140.828125 L 157.925781 140.828125 L 157.925781 140.867188 L 157.847656 140.867188 L 157.804688 140.90625 L 157.726562 140.90625 L 157.726562 140.949219 L 157.6875 140.949219 C 157.367188 141.105469 157.25 141.34375 157.25 141.664062 C 157.25 141.703125 157.25 141.742188 157.25 141.78125 L 154.902344 141.902344 C 154.425781 141.34375 153.75 141.027344 152.996094 140.988281 L 152.914062 139.316406 C 154.503906 139.554688 158.003906 139.554688 157.367188 137.011719 C 157.25 136.457031 156.8125 135.898438 156.136719 135.382812 C 154.027344 133.949219 150.6875 134.269531 147.667969 135.976562 L 146.753906 135.023438 C 146.035156 135.460938 145.320312 135.820312 144.605469 136.136719 C 145.320312 135.78125 145.839844 135.34375 146.117188 134.824219 C 144.40625 131.445312 143.132812 128.902344 142.378906 127.191406 C 142.101562 125.839844 141.625 125.125 140.988281 124.964844 C 135.421875 122.898438 129.972656 123.175781 123.214844 126.476562 C 121.742188 127.707031 121.742188 129.972656 126.914062 130.609375 C 121.980469 130.453125 120.628906 128.542969 121.785156 127.152344 C 120.550781 127.789062 119.996094 129.894531 119.996094 130.609375 C 112.242188 132.757812 103.613281 142.976562 116.933594 147.070312 L 115.34375 147.945312 C 114.667969 147.308594 113.75 146.910156 112.597656 146.671875 C 110.808594 146.792969 108.859375 147.828125 106.753906 149.773438 C 108.027344 148.183594 109.539062 147.03125 110.890625 146.59375 C 107.667969 146.671875 105.203125 147.785156 103.535156 149.972656 C 104.84375 150.171875 105.679688 150.609375 106.15625 151.285156 C 103.890625 150.371094 101.148438 150.132812 97.886719 150.570312 C 96.617188 141.027344 91.527344 141.464844 88.265625 147.589844 C 90.054688 145.003906 94.269531 142.023438 95.503906 146.832031 C 92.402344 142.101562 88.664062 147.984375 87.867188 150.054688 L 79.320312 150.730469 C 71.089844 150.808594 64.808594 161.304688 60.472656 182.179688 C 55.664062 192.753906 54.707031 201.34375 57.570312 207.984375 C 57.929688 208.816406 58.328125 209.652344 58.804688 210.410156 C 66.039062 218.082031 75.382812 221.34375 86.796875 220.148438 C 87.949219 224.164062 89.617188 227.347656 91.84375 229.652344 C 92.082031 228.855469 92.402344 228.101562 92.757812 227.386719 C 92.601562 228.339844 92.480469 229.292969 92.402344 230.207031 C 94.308594 232 96.535156 233.191406 99.121094 233.789062 C 99.082031 233.46875 99.042969 233.113281 99 232.792969 C 99.082031 233.152344 99.199219 233.46875 99.320312 233.828125 C 100.671875 234.144531 102.140625 234.304688 103.734375 234.265625 C 103.851562 232.632812 103.890625 231.003906 103.890625 229.375 C 102.859375 230.25 102.023438 231.324219 101.308594 232.59375 C 98.84375 231.878906 94.867188 231.003906 93.753906 228.976562 C 96.65625 228.660156 100.832031 228.339844 103.492188 226.3125 C 98.960938 227.066406 94.308594 225.953125 90.613281 223.210938 C 94.546875 223.808594 98.5625 222.894531 101.824219 220.628906 C 97.371094 222.296875 92.402344 222.257812 87.949219 220.429688 L 93.117188 220.070312 C 98.644531 219.472656 101.148438 217.207031 100.59375 213.273438 C 101.664062 210.210938 104.210938 206.632812 108.226562 202.535156 L 121.546875 191.5625 C 120.671875 194.984375 119.636719 201.144531 118.484375 210.011719 L 121.703125 207.308594 C 121.902344 199.515625 122.9375 193.511719 124.726562 189.296875 C 126.394531 189.179688 127.828125 187.984375 129.058594 185.71875 C 130.015625 185.796875 131.605469 185.839844 133.789062 185.917969 L 137.527344 186.273438 C 138.484375 187.824219 139.992188 189.097656 142.0625 190.132812 C 141.542969 191.324219 140.035156 192.199219 137.609375 192.714844 C 136.257812 194.464844 135.460938 196.652344 135.300781 199.316406 C 134.984375 202.617188 129.058594 208.460938 117.488281 216.890625 C 124.964844 214.703125 131.324219 210.328125 137.648438 204.761719 C 138.203125 207.824219 136.175781 211.324219 131.605469 215.339844 C 127.707031 219.394531 121.027344 222.8125 111.566406 225.597656 C 108.425781 226.589844 106.039062 227.625 104.210938 229.097656 C 105.242188 233.390625 105.878906 237.804688 106.039062 242.175781 C 106.355469 242.535156 106.714844 242.851562 107.074219 243.171875 C 107.3125 243.289062 107.550781 243.410156 107.75 243.527344 C 108.820312 240.070312 109.140625 236.730469 108.703125 233.507812 C 110.570312 237.683594 111.246094 242.097656 110.769531 246.789062 C 110.808594 246.867188 110.847656 246.988281 110.890625 247.066406 C 113.710938 240.1875 115.542969 235.140625 116.375 231.839844 C 115.738281 237.128906 116.613281 242.097656 117.964844 246.90625 C 119.835938 244.242188 120.550781 240.425781 120.628906 235.339844 C 119.359375 235.378906 118.125 235.339844 116.855469 235.339844 L 120.628906 234.703125 C 120.671875 232.355469 120.550781 229.730469 120.390625 226.828125 C 121.625 229.136719 122.378906 231.640625 122.65625 234.382812 L 124.964844 234.027344 C 125.164062 232.914062 125.320312 231.757812 125.402344 230.566406 C 125.480469 231.757812 125.601562 232.871094 125.800781 233.90625 L 128.304688 233.507812 C 128.304688 232.316406 128.265625 231.320312 128.183594 230.449219 C 128.265625 231.480469 128.382812 232.476562 128.503906 233.46875 L 129.972656 233.230469 C 130.332031 231.28125 130.929688 229.335938 131.761719 227.503906 C 131.761719 229.375 131.882812 231.164062 132.042969 232.914062 C 135.660156 232.316406 139.277344 231.71875 142.894531 231.125 C 142.933594 230.011719 142.933594 228.898438 142.894531 227.785156 C 143.171875 228.855469 143.414062 229.929688 143.652344 231.003906 L 148.5 230.207031 C 146.949219 230.804688 145.398438 231.320312 143.808594 231.839844 C 144.683594 236.210938 145.121094 240.664062 145.160156 245.160156 C 145.597656 245.039062 145.996094 244.878906 146.433594 244.722656 C 147.785156 240.902344 148.222656 237.207031 147.746094 233.628906 C 149.136719 236.769531 149.851562 240.03125 149.933594 243.449219 C 150.527344 243.210938 151.125 242.972656 151.722656 242.734375 C 153.550781 238.082031 154.742188 234.503906 155.378906 231.957031 C 155.0625 234.902344 155.777344 237.804688 156.332031 240.746094 C 157.644531 240.148438 158.957031 239.511719 160.347656 238.835938 C 160.785156 235.417969 160.507812 231.402344 159.433594 226.949219 C 161.144531 230.25 161.941406 233.984375 161.78125 238.160156 C 162.21875 237.921875 162.695312 237.683594 163.171875 237.445312 C 163.847656 235.417969 164.285156 233.152344 164.40625 230.726562 C 164.605469 232.871094 164.882812 234.742188 165.320312 236.332031 C 165.957031 235.972656 166.632812 235.617188 167.308594 235.257812 C 167.347656 233.390625 167.308594 231.839844 167.1875 230.566406 C 167.308594 232.15625 167.464844 233.667969 167.625 235.097656 C 169.453125 234.105469 171.363281 233.03125 173.269531 231.957031 C 179.59375 228.460938 182.21875 224.722656 181.222656 220.746094 C 180.347656 217.207031 177.964844 214.664062 174.582031 213.589844 C 170.726562 212.398438 163.09375 210.527344 151.761719 208.101562 C 152.277344 204.882812 152.597656 201.144531 152.636719 196.890625 C 152.515625 197.40625 151.722656 196.332031 150.25 193.667969 C 152.914062 195.179688 155.101562 194.824219 156.890625 192.515625 C 158.917969 187.707031 159.714844 180.550781 159.238281 171.046875 C 158.5625 166.910156 158.519531 162.976562 159.117188 159.117188 L 159.238281 164.007812 C 160.269531 159.117188 168.859375 158.640625 168.261719 155.9375 C 168.898438 155.699219 169.414062 155.101562 169.734375 154.109375 C 170.847656 154.226562 171.679688 153.589844 172.316406 152.238281 L 176.253906 152.082031 C 177.007812 152.757812 177.882812 153.234375 178.957031 153.152344 L 187.464844 152.835938 C 191.480469 150.371094 192.078125 142.339844 187.464844 139.117188 C 187.066406 138.839844 186.472656 138.800781 186.035156 138.839844 L 178.28125 139.277344 C 177.046875 139.398438 176.054688 139.835938 175.417969 140.589844 L 167.984375 140.710938 C 167.109375 140.628906 166.710938 140.949219 166.195312 141.503906 L 162.695312 141.585938 C 163.449219 142.9375 162.296875 145.359375 161.859375 146.234375 C 163.09375 148.265625 162.378906 149.734375 160.785156 151.445312 C 162.257812 149.574219 162.617188 148.304688 161.382812 146.234375 C 161.703125 145.558594 161.941406 144.925781 162.179688 144.289062 C 162.660156 143.09375 162.578125 142.21875 161.945312 141.625 Z M 145.839844 246.351562 C 145.601562 246.308594 145.402344 246.269531 145.164062 246.230469 C 145.164062 246.789062 145.125 247.382812 145.125 247.941406 C 145.363281 247.421875 145.601562 246.867188 145.839844 246.351562 Z M 140.316406 247.183594 C 140.195312 247.183594 140.035156 247.183594 139.917969 247.183594 C 139.878906 247.664062 139.878906 248.140625 139.835938 248.65625 C 139.996094 248.140625 140.15625 247.664062 140.316406 247.183594 Z M 139.917969 246.628906 C 140.117188 246.589844 140.316406 246.550781 140.511719 246.46875 C 141.90625 241.816406 142.699219 236.964844 142.898438 232.117188 C 141.308594 232.554688 139.757812 232.992188 138.167969 233.347656 C 139.441406 237.644531 140.035156 242.136719 139.917969 246.628906 Z M 138.207031 185.359375 L 131.605469 183.769531 C 130.773438 180.148438 127.589844 177.484375 123.855469 177.367188 C 126.238281 178.042969 128.1875 179.753906 129.183594 182.019531 C 127.394531 180.984375 125.207031 180.785156 123.257812 181.460938 C 122.742188 181.421875 123.894531 181.582031 126.636719 181.941406 L 122.304688 186.195312 L 121.984375 187.464844 L 104.691406 201.621094 C 103.378906 200.746094 102.664062 199.394531 102.503906 197.605469 C 102.464844 197.566406 102.859375 192.992188 103.65625 183.886719 C 103.816406 182.933594 104.890625 181.105469 106.957031 178.402344 C 107.035156 178.082031 106.160156 178.878906 104.214844 180.828125 L 104.332031 178.042969 C 107.035156 175.179688 110.335938 172.953125 113.992188 171.484375 C 110.652344 172.359375 107.554688 173.867188 104.808594 175.9375 C 104.53125 171.800781 105.167969 167.625 106.71875 163.769531 C 112.523438 153.671875 119.164062 149.296875 126.636719 150.648438 C 128.902344 151.164062 131.449219 152.199219 134.3125 153.75 C 136.339844 156.054688 137.691406 157.726562 138.40625 158.761719 C 137.253906 158.324219 136.019531 158.203125 134.589844 158.402344 C 137.171875 158.71875 139.003906 159.355469 140.078125 160.230469 C 141.230469 163.171875 143.136719 165.996094 145.921875 168.78125 C 148.027344 170.132812 149.261719 171.363281 149.539062 172.476562 C 149.417969 173.949219 149.699219 175.417969 150.375 176.730469 C 150.136719 175.816406 150.054688 174.824219 150.136719 173.789062 C 150.929688 173.988281 151.644531 174.425781 152.203125 174.980469 C 153.753906 177.25 153.355469 179.910156 151.050781 182.933594 C 150.574219 181.542969 149.738281 180.308594 148.585938 179.394531 C 149.539062 180.746094 150.136719 182.335938 150.292969 184.007812 C 149.101562 185.914062 146.914062 187.902344 143.851562 190.011719 C 141.945312 189.652344 140.433594 188.222656 139.320312 185.636719 C 140.316406 183.886719 144.410156 181.542969 146.953125 178.957031 C 146.835938 178.71875 146.675781 178.480469 146.558594 178.242188 C 143.8125 180.667969 139.878906 183.09375 138.207031 185.359375 Z M 147.550781 178.28125 C 148.347656 177.367188 148.863281 176.414062 148.980469 175.457031 C 148.585938 176.175781 147.910156 176.929688 147.152344 177.683594 C 147.273438 177.882812 147.429688 178.082031 147.550781 178.28125 Z M 116.101562 141.226562 C 116.816406 140.113281 118.128906 137.765625 118.964844 136.773438 C 119.164062 136.890625 118.765625 138.324219 118.964844 138.480469 C 117.769531 140.75 118.367188 142.21875 120.714844 142.816406 C 119.640625 143.53125 118.527344 144.527344 117.375 145.796875 C 107.234375 143.332031 111.527344 135.261719 117.570312 132.636719 C 115.625 133.671875 112.484375 137.765625 112.285156 139.753906 C 113.199219 138.363281 115.265625 135.101562 118.527344 133.472656 C 116.976562 135.421875 114.867188 137.171875 113.875 141.265625 C 114.75 139.914062 117.492188 136.335938 118.566406 135.140625 C 118.246094 135.421875 115.824219 140.628906 116.101562 141.226562 Z M 130.890625 132.519531 C 128.746094 132.957031 126.476562 133.15625 124.210938 133.113281 C 126.359375 133.394531 131.328125 133.789062 133.515625 133.789062 C 130.851562 134.347656 127.113281 134.507812 124.492188 134.664062 C 126.160156 134.984375 131.804688 135.183594 134.589844 134.785156 C 131.328125 135.5 127.433594 136.214844 124.09375 136.136719 C 126.042969 136.613281 133.15625 137.410156 135.226562 137.128906 C 131.128906 138.125 127.550781 137.964844 123.097656 138.203125 C 128.148438 139.4375 131.488281 139.832031 138.765625 138.164062 C 134.074219 140.746094 127.511719 141.78125 120.792969 139.355469 C 120.753906 137.167969 120.910156 134.148438 121.191406 130.210938 C 123.296875 132.121094 126.957031 132.714844 130.972656 132 Z M 57.574219 207.980469 C 69.144531 210.367188 69.304688 196.691406 67.632812 188.859375 C 65.605469 179.394531 68.308594 170.648438 75.070312 163.410156 C 76.222656 162.179688 86.679688 151.046875 79.324219 150.726562 C 86.640625 150.808594 79.722656 159.277344 77.574219 161.78125 C 70.773438 169.773438 67.394531 177.167969 68.828125 187.503906 C 69.144531 190.011719 69.703125 192.15625 70.019531 194.304688 C 70.695312 198.957031 68.984375 207.265625 64.375 209.375 C 64.335938 210.445312 64.851562 211.402344 65.726562 211.996094 C 64.492188 211.757812 63.5 210.804688 63.179688 209.574219 C 62.585938 209.769531 61.949219 209.890625 61.3125 209.929688 C 61.589844 210.84375 62.226562 211.601562 63.023438 212.078125 C 61.828125 211.800781 60.875 210.925781 60.476562 209.8125 C 59.164062 209.929688 58.210938 209.332031 57.574219 207.980469 Z M 137.96875 233.386719 C 136.101562 233.785156 134.152344 234.144531 132.203125 234.460938 C 132.761719 238.835938 133.792969 242.773438 135.183594 246.308594 C 135.980469 242.214844 137.453125 238.160156 137.96875 233.386719 Z M 129.777344 234.78125 C 129.421875 234.820312 129.101562 234.859375 128.785156 234.898438 C 129.023438 236.25 129.339844 237.5625 129.738281 238.796875 C 129.621094 237.445312 129.621094 236.09375 129.777344 234.78125 Z M 128.308594 234.9375 C 127.550781 235.019531 126.796875 235.058594 126.039062 235.136719 C 126.476562 237.285156 127.152344 238.996094 128.027344 240.304688 C 128.1875 238.277344 128.265625 236.488281 128.308594 234.9375 Z M 124.730469 235.21875 C 124.054688 235.257812 123.378906 235.296875 122.742188 235.296875 C 122.820312 237.125 122.742188 238.996094 122.460938 240.984375 C 123.496094 239.273438 124.25 237.324219 124.730469 235.21875 Z M 120.472656 148.5 C 117.175781 149.496094 113.792969 151.484375 110.414062 154.546875 C 112.878906 151.324219 116.5 149.179688 120.472656 148.5 Z M 114.710938 148.582031 C 112.523438 149.335938 110.136719 151.046875 107.550781 153.632812 C 107.550781 152.953125 107.550781 152.675781 107.472656 152 C 109.539062 149.417969 112.324219 147.546875 114.710938 148.582031 Z M 168.265625 155.9375 C 168.34375 155.0625 168.386719 154.148438 168.386719 153.3125 C 168.542969 154.109375 168.582031 154.941406 168.464844 155.816406 C 168.386719 155.898438 168.304688 155.898438 168.265625 155.9375 Z M 150.492188 159.355469 C 150.253906 159.753906 150.613281 165.71875 149.261719 170.132812 C 148.980469 168.898438 149.539062 166.671875 149.5 164.246094 C 148.664062 165.480469 147.671875 166.832031 146.515625 168.222656 C 144.53125 166.234375 142.859375 163.96875 141.507812 161.542969 C 140.671875 159.714844 139.558594 158.28125 138.207031 157.25 C 139.320312 156.535156 139.957031 155.777344 140.117188 154.984375 C 140.59375 153.710938 141.148438 152.796875 141.824219 152.238281 C 141.628906 152.636719 140.433594 154.109375 140.433594 156.453125 L 140.433594 158.082031 C 140.515625 158.480469 140.832031 158.640625 141.429688 158.601562 Z M 169.855469 153.433594 C 170.53125 152.359375 170.613281 151.324219 170.054688 150.289062 C 170.453125 150.6875 170.652344 151.285156 170.613281 151.921875 C 170.570312 152.519531 170.292969 153.074219 169.855469 153.433594 Z M 94.75 149.972656 L 91.09375 150.011719 C 92.007812 146.871094 95.109375 143.609375 94.75 149.972656 Z M 163.535156 155.898438 C 162.699219 155.816406 161.863281 156.214844 161.425781 156.453125 C 161.746094 156.054688 162.5 155.816406 163.214844 155.699219 C 163.058594 154.464844 163.058594 153.988281 163.253906 152.320312 C 163.375 154.226562 163.097656 154.109375 163.535156 155.898438 Z M 166 154.625 C 166.199219 151.5625 164.25 150.011719 164.050781 147.46875 C 164.847656 150.171875 166.554688 150.6875 166 154.625 Z M 168.144531 151.644531 C 167.3125 148.621094 165.917969 148.621094 165.203125 146.792969 C 166.515625 148.859375 167.828125 148.183594 168.144531 151.644531 Z M 168.144531 151.644531 " fill-opacity="1" fill-rule="evenodd"/><g clip-path="url(#979bb827ff)"><path fill="#0c2043" d="M 50.65625 244.28125 C 50.695312 243.726562 76.898438 243.128906 76.976562 242.492188 C 77.257812 239.433594 77.890625 235.535156 78.527344 232.992188 C 78.726562 238.039062 79.046875 241.378906 79.523438 243.050781 C 80.636719 240.785156 81.351562 238.277344 81.589844 235.734375 C 81.667969 238.835938 82.265625 241.179688 83.378906 242.851562 L 83.738281 241.378906 C 83.933594 240.265625 84.214844 239.191406 84.492188 237.921875 L 84.53125 238.121094 C 84.808594 236.964844 85.089844 235.773438 85.367188 234.542969 C 85.765625 238.398438 86.121094 241.222656 86.519531 243.050781 C 86.917969 241.222656 87.273438 238.359375 87.671875 234.382812 C 88.390625 237.445312 89.066406 240.1875 89.660156 242.730469 C 90.773438 241.0625 91.371094 238.714844 91.449219 235.613281 C 91.6875 238 92.324219 240.347656 93.320312 242.53125 C 93.4375 241.539062 93.558594 240.503906 93.675781 239.351562 L 93.953125 240.625 C 94.195312 238.757812 94.390625 236.171875 94.511719 232.871094 C 94.949219 234.5 95.425781 236.449219 95.785156 238.359375 C 95.941406 237.046875 96.140625 235.535156 96.300781 233.824219 C 97.015625 236.847656 97.652344 239.628906 98.289062 242.175781 C 99.363281 240.503906 99.957031 238.121094 100.078125 235.058594 C 100.316406 237.445312 100.953125 239.789062 101.945312 241.9375 C 102.066406 240.984375 102.183594 239.910156 102.265625 238.796875 L 102.582031 240.027344 C 102.820312 238.160156 103.019531 235.574219 103.140625 232.277344 C 103.894531 235.375 104.054688 240.746094 105.445312 242.972656 C 105.046875 243.328125 104.371094 243.605469 103.496094 243.84375 C 103.734375 245 104.011719 246.070312 104.25 247.105469 C 105.363281 245.4375 105.960938 243.089844 106.039062 240.027344 C 106.238281 241.738281 106.597656 243.449219 107.195312 245.117188 C 107.871094 242.492188 108.109375 238.875 108.664062 236.570312 C 108.746094 238.277344 108.824219 239.789062 108.941406 241.140625 C 109.023438 239.988281 109.0625 238.675781 109.140625 237.246094 C 109.660156 239.3125 109.898438 242.453125 110.414062 244.957031 C 111.089844 243.167969 111.566406 241.261719 111.765625 239.351562 C 111.84375 242.414062 112.441406 244.761719 113.515625 246.429688 C 114.152344 243.925781 114.828125 241.140625 115.542969 238.121094 C 115.703125 239.828125 115.863281 241.339844 116.019531 242.652344 C 116.417969 240.703125 116.894531 238.796875 117.292969 237.125 C 117.492188 242.175781 117.808594 245.554688 118.285156 247.226562 C 119.398438 244.917969 120.117188 242.453125 120.355469 239.910156 C 120.472656 242.972656 121.070312 245.355469 122.144531 247.027344 C 122.78125 244.480469 123.414062 241.699219 124.132812 238.675781 C 124.289062 240.308594 124.449219 241.738281 124.609375 242.972656 C 124.886719 241.300781 125.203125 239.671875 125.523438 238.398438 C 125.601562 240.585938 125.722656 242.453125 125.839844 244.003906 C 126.039062 242.535156 126.238281 240.824219 126.4375 238.796875 C 126.953125 240.941406 127.429688 242.972656 127.90625 244.878906 C 128.226562 243.6875 128.464844 242.414062 128.582031 241.183594 C 128.664062 242.890625 128.863281 244.363281 129.21875 245.636719 C 129.816406 244.164062 130.132812 242.296875 130.214844 240.027344 C 130.371094 241.660156 130.730469 243.210938 131.246094 244.761719 C 131.605469 243.210938 131.964844 241.621094 132.359375 239.949219 C 132.519531 241.5 132.679688 242.929688 132.839844 244.164062 C 133.035156 242.375 133.195312 240.109375 133.277344 237.246094 C 133.671875 238.796875 134.03125 240.785156 134.347656 242.8125 C 134.46875 241.898438 134.585938 240.902344 134.667969 239.832031 C 135.304688 242.414062 135.859375 244.839844 136.375 247.027344 C 136.65625 247.066406 136.933594 247.105469 137.25 247.105469 C 137.96875 245.554688 138.363281 243.527344 138.445312 241.0625 C 138.683594 243.210938 139.199219 245.316406 140.035156 247.304688 L 140.75 247.34375 C 141.109375 245.476562 141.347656 242.453125 141.503906 238.28125 C 141.941406 239.949219 142.421875 241.859375 142.777344 243.765625 C 142.9375 242.453125 143.136719 240.945312 143.292969 239.234375 C 144.011719 242.253906 144.6875 245.039062 145.28125 247.582031 C 145.878906 246.707031 146.316406 245.636719 146.59375 244.363281 C 146.195312 244.164062 145.878906 244.003906 145.640625 243.804688 C 147.03125 241.578125 147.191406 236.171875 147.945312 233.109375 C 148.144531 238.160156 148.464844 241.5 148.941406 243.210938 C 149.339844 242.335938 149.695312 241.460938 150.015625 240.585938 C 150.054688 239.710938 150.09375 238.71875 150.132812 237.722656 C 150.253906 238.160156 150.332031 238.636719 150.410156 239.113281 C 150.691406 238.082031 150.886719 236.96875 151.007812 235.894531 C 151.085938 238.957031 151.683594 241.300781 152.796875 242.972656 C 153.394531 240.464844 154.070312 237.683594 154.785156 234.660156 C 154.945312 236.371094 155.101562 237.882812 155.300781 239.195312 C 155.660156 237.246094 156.136719 235.335938 156.535156 233.667969 C 156.734375 238.71875 157.089844 242.097656 157.566406 243.765625 C 157.847656 243.128906 158.125 242.496094 158.363281 241.816406 C 158.640625 240.347656 158.921875 238.957031 159.199219 237.84375 C 159.199219 238.199219 159.199219 238.558594 159.238281 238.914062 C 159.398438 238.121094 159.554688 237.285156 159.636719 236.449219 C 159.714844 239.511719 160.3125 241.898438 161.425781 243.566406 C 162.019531 241.023438 162.695312 238.238281 163.414062 235.21875 C 163.769531 239.15625 164.167969 242.058594 164.566406 243.886719 C 164.964844 242.058594 165.320312 239.195312 165.71875 235.335938 C 166.433594 238.359375 167.070312 241.140625 167.707031 243.6875 C 167.746094 243.566406 167.828125 243.488281 167.90625 243.367188 C 168.023438 242.136719 168.183594 240.785156 168.34375 239.273438 L 168.820312 241.222656 C 169.21875 239.910156 169.417969 238.359375 169.496094 236.570312 C 169.734375 239.113281 170.449219 241.578125 171.5625 243.886719 C 171.761719 243.128906 171.960938 242.015625 172.121094 240.546875 L 172.121094 240.507812 C 172.320312 238.757812 172.4375 236.53125 172.558594 233.785156 C 173.195312 236.332031 173.828125 240.226562 174.109375 243.289062 C 174.109375 243.367188 174.386719 243.449219 174.824219 243.488281 C 174.984375 241.898438 175.101562 239.988281 175.183594 237.722656 C 175.578125 239.351562 176.054688 241.300781 176.453125 243.210938 C 176.613281 241.898438 176.773438 240.386719 176.972656 238.675781 C 177.367188 240.464844 177.765625 242.175781 178.164062 243.765625 C 178.800781 243.804688 179.515625 243.847656 180.230469 243.886719 C 180.507812 242.734375 180.667969 241.421875 180.75 239.910156 C 180.867188 241.300781 181.144531 242.652344 181.542969 243.964844 L 183.332031 244.042969 C 183.53125 242.296875 183.691406 239.988281 183.808594 237.125 C 184.367188 239.351562 184.328125 241.816406 184.882812 244.125 C 192.121094 244.480469 200.390625 244.800781 200.429688 245.117188 C 197.207031 247.820312 170.09375 248.894531 150.691406 249.214844 C 141.148438 252.078125 103.097656 250.167969 97.652344 249.730469 C 97.652344 249.652344 98.046875 249.570312 98.683594 249.53125 C 83.617188 249.453125 60.476562 246.949219 56.339844 246.628906 C 56.378906 246.074219 83.136719 245.992188 83.179688 245.355469 C 69.464844 245.394531 53.996094 244.5625 50.65625 244.28125 Z M 183.097656 245.914062 L 182.222656 245.953125 C 182.421875 246.390625 182.617188 246.828125 182.816406 247.226562 C 182.898438 246.867188 183.015625 246.429688 183.097656 245.914062 Z M 179.519531 246.03125 L 178.722656 246.03125 L 178.960938 247.027344 C 179.160156 246.707031 179.320312 246.390625 179.519531 246.03125 Z M 174.546875 246.113281 L 173.472656 246.152344 C 173.671875 246.707031 173.910156 247.265625 174.191406 247.820312 C 174.308594 247.34375 174.429688 246.789062 174.546875 246.113281 Z M 171.089844 246.152344 L 169.976562 246.152344 L 170.332031 247.582031 C 170.613281 247.144531 170.851562 246.667969 171.089844 246.152344 Z M 167.511719 246.152344 L 166.875 246.152344 C 166.953125 246.828125 167.074219 247.421875 167.191406 247.902344 C 167.273438 247.421875 167.390625 246.828125 167.511719 246.152344 Z M 164.449219 246.113281 C 164.011719 246.113281 163.613281 246.113281 163.214844 246.113281 C 163.453125 246.707031 163.734375 247.226562 164.050781 247.703125 Z M 160.988281 246.03125 C 160.59375 246.03125 160.195312 246.03125 159.796875 245.992188 C 159.917969 246.789062 160.035156 247.421875 160.195312 247.941406 C 160.472656 247.304688 160.75 246.667969 160.988281 246.03125 Z M 157.769531 245.914062 C 155.421875 245.792969 153.238281 245.632812 151.40625 245.394531 C 151.605469 246.351562 151.84375 247.226562 152.164062 247.902344 C 155.34375 247.703125 157.609375 247.542969 157.648438 247.34375 C 157.6875 246.867188 157.730469 246.390625 157.769531 245.914062 Z M 149.140625 247.742188 C 149.339844 247.105469 149.5 246.230469 149.617188 245.117188 C 149.023438 245.039062 148.425781 244.917969 147.949219 244.757812 C 148.265625 245.792969 148.664062 246.789062 149.140625 247.742188 Z M 111.765625 248.816406 C 111.210938 248.734375 110.695312 248.65625 110.175781 248.535156 C 109.738281 248.695312 109.183594 248.855469 108.585938 248.933594 Z M 100.078125 244.519531 C 99.519531 244.601562 98.886719 244.679688 98.25 244.71875 C 98.605469 245.832031 99.003906 246.867188 99.519531 247.902344 C 99.71875 247.144531 99.917969 245.992188 100.078125 244.519531 Z M 96.855469 244.878906 C 96.261719 244.917969 95.664062 244.957031 94.988281 245 C 95.226562 245.914062 95.425781 246.828125 95.664062 247.703125 C 96.179688 246.90625 96.578125 245.953125 96.855469 244.878906 Z M 93 245.117188 C 92.683594 245.117188 92.363281 245.15625 92.007812 245.15625 C 92.164062 246.269531 92.324219 247.226562 92.484375 248.019531 C 92.644531 247.226562 92.839844 246.269531 93 245.117188 Z M 89.980469 245.238281 C 89.421875 245.238281 88.824219 245.277344 88.230469 245.277344 C 88.507812 246.230469 88.90625 247.105469 89.382812 247.820312 C 89.582031 246.984375 89.78125 246.113281 89.980469 245.238281 Z M 86.597656 245.316406 C 86.082031 245.316406 85.566406 245.316406 85.007812 245.316406 C 85.167969 246.46875 85.328125 247.382812 85.527344 248.019531 C 85.921875 247.144531 86.320312 246.230469 86.597656 245.316406 Z M 86.597656 245.316406 " fill-opacity="1" fill-rule="evenodd"/></g><g clip-path="url(#e07d384a2a)"><path fill="#0c2043" d="M 154.046875 162.792969 L 278.308594 162.792969 L 278.308594 193.949219 L 154.046875 193.949219 Z M 154.046875 162.792969 " fill-opacity="1" fill-rule="nonzero"/></g><g fill="#0c2043" fill-opacity="1"><g transform="translate(185.845084, 213.910181)"><g><path d="M 8.484375 -15.40625 C 9.847656 -15.40625 11.03125 -15.175781 12.03125 -14.71875 C 13.039062 -14.257812 13.816406 -13.613281 14.359375 -12.78125 C 14.910156 -11.945312 15.1875 -10.957031 15.1875 -9.8125 C 15.1875 -8.6875 14.910156 -7.703125 14.359375 -6.859375 C 13.816406 -6.015625 13.039062 -5.367188 12.03125 -4.921875 C 11.03125 -4.472656 9.847656 -4.25 8.484375 -4.25 L 5.390625 -4.25 L 5.390625 0 L 1.828125 0 L 1.828125 -15.40625 Z M 8.296875 -7.15625 C 9.367188 -7.15625 10.179688 -7.382812 10.734375 -7.84375 C 11.296875 -8.300781 11.578125 -8.957031 11.578125 -9.8125 C 11.578125 -10.675781 11.296875 -11.335938 10.734375 -11.796875 C 10.179688 -12.265625 9.367188 -12.5 8.296875 -12.5 L 5.390625 -12.5 L 5.390625 -7.15625 Z M 8.296875 -7.15625 "/></g></g></g><g fill="#0c2043" fill-opacity="1"><g transform="translate(200.934213, 213.910181)"><g><path d="M 8.78125 -12.015625 C 10.25 -12.015625 11.429688 -11.570312 12.328125 -10.6875 C 13.234375 -9.8125 13.6875 -8.507812 13.6875 -6.78125 L 13.6875 0 L 10.25 0 L 10.25 -6.25 C 10.25 -7.1875 10.039062 -7.882812 9.625 -8.34375 C 9.21875 -8.8125 8.628906 -9.046875 7.859375 -9.046875 C 6.992188 -9.046875 6.300781 -8.773438 5.78125 -8.234375 C 5.269531 -7.703125 5.015625 -6.910156 5.015625 -5.859375 L 5.015625 0 L 1.578125 0 L 1.578125 -16.328125 L 5.015625 -16.328125 L 5.015625 -10.609375 C 5.472656 -11.054688 6.023438 -11.398438 6.671875 -11.640625 C 7.316406 -11.890625 8.019531 -12.015625 8.78125 -12.015625 Z M 8.78125 -12.015625 "/></g></g></g><g fill="#0c2043" fill-opacity="1"><g transform="translate(215.121501, 213.910181)"><g><path d="M 7.21875 0.171875 C 5.96875 0.171875 4.847656 -0.0859375 3.859375 -0.609375 C 2.867188 -1.128906 2.09375 -1.847656 1.53125 -2.765625 C 0.976562 -3.691406 0.703125 -4.742188 0.703125 -5.921875 C 0.703125 -7.085938 0.976562 -8.132812 1.53125 -9.0625 C 2.09375 -9.988281 2.867188 -10.710938 3.859375 -11.234375 C 4.847656 -11.753906 5.96875 -12.015625 7.21875 -12.015625 C 8.46875 -12.015625 9.582031 -11.753906 10.5625 -11.234375 C 11.539062 -10.710938 12.304688 -9.988281 12.859375 -9.0625 C 13.421875 -8.132812 13.703125 -7.085938 13.703125 -5.921875 C 13.703125 -4.742188 13.421875 -3.691406 12.859375 -2.765625 C 12.304688 -1.847656 11.539062 -1.128906 10.5625 -0.609375 C 9.582031 -0.0859375 8.46875 0.171875 7.21875 0.171875 Z M 7.21875 -2.640625 C 8.09375 -2.640625 8.8125 -2.9375 9.375 -3.53125 C 9.945312 -4.125 10.234375 -4.921875 10.234375 -5.921875 C 10.234375 -6.910156 9.945312 -7.703125 9.375 -8.296875 C 8.8125 -8.898438 8.09375 -9.203125 7.21875 -9.203125 C 6.332031 -9.203125 5.601562 -8.898438 5.03125 -8.296875 C 4.46875 -7.703125 4.1875 -6.910156 4.1875 -5.921875 C 4.1875 -4.921875 4.46875 -4.125 5.03125 -3.53125 C 5.601562 -2.9375 6.332031 -2.640625 7.21875 -2.640625 Z M 7.21875 -2.640625 "/></g></g></g><g fill="#0c2043" fill-opacity="1"><g transform="translate(228.516938, 213.910181)"><g><path d="M 9.21875 -0.578125 C 8.882812 -0.328125 8.46875 -0.140625 7.96875 -0.015625 C 7.476562 0.109375 6.960938 0.171875 6.421875 0.171875 C 5.015625 0.171875 3.925781 -0.1875 3.15625 -0.90625 C 2.382812 -1.625 2 -2.675781 2 -4.0625 L 2 -8.9375 L 0.171875 -8.9375 L 0.171875 -11.578125 L 2 -11.578125 L 2 -14.453125 L 5.4375 -14.453125 L 5.4375 -11.578125 L 8.375 -11.578125 L 8.375 -8.9375 L 5.4375 -8.9375 L 5.4375 -4.109375 C 5.4375 -3.609375 5.5625 -3.222656 5.8125 -2.953125 C 6.070312 -2.679688 6.4375 -2.546875 6.90625 -2.546875 C 7.445312 -2.546875 7.910156 -2.691406 8.296875 -2.984375 Z M 9.21875 -0.578125 "/></g></g></g><g fill="#0c2043" fill-opacity="1"><g transform="translate(237.07323, 213.910181)"><g><path d="M 7.21875 0.171875 C 5.96875 0.171875 4.847656 -0.0859375 3.859375 -0.609375 C 2.867188 -1.128906 2.09375 -1.847656 1.53125 -2.765625 C 0.976562 -3.691406 0.703125 -4.742188 0.703125 -5.921875 C 0.703125 -7.085938 0.976562 -8.132812 1.53125 -9.0625 C 2.09375 -9.988281 2.867188 -10.710938 3.859375 -11.234375 C 4.847656 -11.753906 5.96875 -12.015625 7.21875 -12.015625 C 8.46875 -12.015625 9.582031 -11.753906 10.5625 -11.234375 C 11.539062 -10.710938 12.304688 -9.988281 12.859375 -9.0625 C 13.421875 -8.132812 13.703125 -7.085938 13.703125 -5.921875 C 13.703125 -4.742188 13.421875 -3.691406 12.859375 -2.765625 C 12.304688 -1.847656 11.539062 -1.128906 10.5625 -0.609375 C 9.582031 -0.0859375 8.46875 0.171875 7.21875 0.171875 Z M 7.21875 -2.640625 C 8.09375 -2.640625 8.8125 -2.9375 9.375 -3.53125 C 9.945312 -4.125 10.234375 -4.921875 10.234375 -5.921875 C 10.234375 -6.910156 9.945312 -7.703125 9.375 -8.296875 C 8.8125 -8.898438 8.09375 -9.203125 7.21875 -9.203125 C 6.332031 -9.203125 5.601562 -8.898438 5.03125 -8.296875 C 4.46875 -7.703125 4.1875 -6.910156 4.1875 -5.921875 C 4.1875 -4.921875 4.46875 -4.125 5.03125 -3.53125 C 5.601562 -2.9375 6.332031 -2.640625 7.21875 -2.640625 Z M 7.21875 -2.640625 "/></g></g></g><g fill="#0c2043" fill-opacity="1"><g transform="translate(250.468664, 213.910181)"><g><path d="M 13.796875 -11.84375 L 13.796875 -1.984375 C 13.796875 0.191406 13.226562 1.804688 12.09375 2.859375 C 10.96875 3.910156 9.320312 4.4375 7.15625 4.4375 C 6.007812 4.4375 4.921875 4.296875 3.890625 4.015625 C 2.867188 3.742188 2.019531 3.34375 1.34375 2.8125 L 2.703125 0.359375 C 3.203125 0.765625 3.832031 1.085938 4.59375 1.328125 C 5.351562 1.566406 6.117188 1.6875 6.890625 1.6875 C 8.078125 1.6875 8.953125 1.421875 9.515625 0.890625 C 10.078125 0.359375 10.359375 -0.453125 10.359375 -1.546875 L 10.359375 -2.046875 C 9.460938 -1.066406 8.21875 -0.578125 6.625 -0.578125 C 5.539062 -0.578125 4.546875 -0.8125 3.640625 -1.28125 C 2.734375 -1.757812 2.015625 -2.429688 1.484375 -3.296875 C 0.960938 -4.160156 0.703125 -5.160156 0.703125 -6.296875 C 0.703125 -7.421875 0.960938 -8.414062 1.484375 -9.28125 C 2.015625 -10.144531 2.734375 -10.816406 3.640625 -11.296875 C 4.546875 -11.773438 5.539062 -12.015625 6.625 -12.015625 C 8.34375 -12.015625 9.644531 -11.445312 10.53125 -10.3125 L 10.53125 -11.84375 Z M 7.296875 -3.390625 C 8.210938 -3.390625 8.957031 -3.65625 9.53125 -4.1875 C 10.113281 -4.726562 10.40625 -5.429688 10.40625 -6.296875 C 10.40625 -7.160156 10.113281 -7.859375 9.53125 -8.390625 C 8.957031 -8.929688 8.210938 -9.203125 7.296875 -9.203125 C 6.390625 -9.203125 5.644531 -8.929688 5.0625 -8.390625 C 4.476562 -7.859375 4.1875 -7.160156 4.1875 -6.296875 C 4.1875 -5.429688 4.476562 -4.726562 5.0625 -4.1875 C 5.644531 -3.65625 6.390625 -3.390625 7.296875 -3.390625 Z M 7.296875 -3.390625 "/></g></g></g><g fill="#0c2043" fill-opacity="1"><g transform="translate(264.853921, 213.910181)"><g><path d="M 4.859375 -10.28125 C 5.273438 -10.84375 5.828125 -11.269531 6.515625 -11.5625 C 7.210938 -11.863281 8.019531 -12.015625 8.9375 -12.015625 L 8.9375 -8.84375 C 8.550781 -8.875 8.289062 -8.890625 8.15625 -8.890625 C 7.175781 -8.890625 6.40625 -8.613281 5.84375 -8.0625 C 5.289062 -7.507812 5.015625 -6.6875 5.015625 -5.59375 L 5.015625 0 L 1.578125 0 L 1.578125 -11.84375 L 4.859375 -11.84375 Z M 4.859375 -10.28125 "/></g></g></g><g fill="#0c2043" fill-opacity="1"><g transform="translate(273.322228, 213.910181)"><g><path d="M 6.359375 -12.015625 C 8.191406 -12.015625 9.597656 -11.578125 10.578125 -10.703125 C 11.566406 -9.828125 12.0625 -8.507812 12.0625 -6.75 L 12.0625 0 L 8.84375 0 L 8.84375 -1.46875 C 8.195312 -0.375 6.992188 0.171875 5.234375 0.171875 C 4.328125 0.171875 3.539062 0.0195312 2.875 -0.28125 C 2.207031 -0.59375 1.695312 -1.019531 1.34375 -1.5625 C 0.988281 -2.101562 0.8125 -2.71875 0.8125 -3.40625 C 0.8125 -4.507812 1.222656 -5.375 2.046875 -6 C 2.878906 -6.632812 4.160156 -6.953125 5.890625 -6.953125 L 8.625 -6.953125 C 8.625 -7.703125 8.394531 -8.273438 7.9375 -8.671875 C 7.488281 -9.078125 6.804688 -9.28125 5.890625 -9.28125 C 5.265625 -9.28125 4.644531 -9.179688 4.03125 -8.984375 C 3.425781 -8.785156 2.910156 -8.519531 2.484375 -8.1875 L 1.25 -10.578125 C 1.894531 -11.035156 2.664062 -11.390625 3.5625 -11.640625 C 4.46875 -11.890625 5.398438 -12.015625 6.359375 -12.015625 Z M 6.09375 -2.140625 C 6.675781 -2.140625 7.195312 -2.273438 7.65625 -2.546875 C 8.113281 -2.816406 8.4375 -3.210938 8.625 -3.734375 L 8.625 -4.953125 L 6.265625 -4.953125 C 4.859375 -4.953125 4.15625 -4.488281 4.15625 -3.5625 C 4.15625 -3.125 4.328125 -2.773438 4.671875 -2.515625 C 5.015625 -2.265625 5.488281 -2.140625 6.09375 -2.140625 Z M 6.09375 -2.140625 "/></g></g></g><g fill="#0c2043" fill-opacity="1"><g transform="translate(285.881809, 213.910181)"><g><path d="M 8.578125 -12.015625 C 9.679688 -12.015625 10.679688 -11.757812 11.578125 -11.25 C 12.484375 -10.75 13.191406 -10.039062 13.703125 -9.125 C 14.210938 -8.207031 14.46875 -7.140625 14.46875 -5.921875 C 14.46875 -4.703125 14.210938 -3.632812 13.703125 -2.71875 C 13.191406 -1.800781 12.484375 -1.085938 11.578125 -0.578125 C 10.679688 -0.078125 9.679688 0.171875 8.578125 0.171875 C 7.066406 0.171875 5.878906 -0.300781 5.015625 -1.25 L 5.015625 4.265625 L 1.578125 4.265625 L 1.578125 -11.84375 L 4.859375 -11.84375 L 4.859375 -10.46875 C 5.710938 -11.5 6.953125 -12.015625 8.578125 -12.015625 Z M 7.984375 -2.640625 C 8.867188 -2.640625 9.59375 -2.9375 10.15625 -3.53125 C 10.71875 -4.125 11 -4.921875 11 -5.921875 C 11 -6.910156 10.71875 -7.703125 10.15625 -8.296875 C 9.59375 -8.898438 8.867188 -9.203125 7.984375 -9.203125 C 7.109375 -9.203125 6.382812 -8.898438 5.8125 -8.296875 C 5.25 -7.703125 4.96875 -6.910156 4.96875 -5.921875 C 4.96875 -4.921875 5.25 -4.125 5.8125 -3.53125 C 6.382812 -2.9375 7.109375 -2.640625 7.984375 -2.640625 Z M 7.984375 -2.640625 "/></g></g></g><g fill="#0c2043" fill-opacity="1"><g transform="translate(300.047099, 213.910181)"><g><path d="M 8.78125 -12.015625 C 10.25 -12.015625 11.429688 -11.570312 12.328125 -10.6875 C 13.234375 -9.8125 13.6875 -8.507812 13.6875 -6.78125 L 13.6875 0 L 10.25 0 L 10.25 -6.25 C 10.25 -7.1875 10.039062 -7.882812 9.625 -8.34375 C 9.21875 -8.8125 8.628906 -9.046875 7.859375 -9.046875 C 6.992188 -9.046875 6.300781 -8.773438 5.78125 -8.234375 C 5.269531 -7.703125 5.015625 -6.910156 5.015625 -5.859375 L 5.015625 0 L 1.578125 0 L 1.578125 -16.328125 L 5.015625 -16.328125 L 5.015625 -10.609375 C 5.472656 -11.054688 6.023438 -11.398438 6.671875 -11.640625 C 7.316406 -11.890625 8.019531 -12.015625 8.78125 -12.015625 Z M 8.78125 -12.015625 "/></g></g></g><g fill="#0c2043" fill-opacity="1"><g transform="translate(314.234384, 213.910181)"><g><path d="M 13.328125 -11.84375 L 7.984375 0.71875 C 7.441406 2.082031 6.769531 3.039062 5.96875 3.59375 C 5.175781 4.15625 4.210938 4.4375 3.078125 4.4375 C 2.460938 4.4375 1.851562 4.34375 1.25 4.15625 C 0.65625 3.96875 0.164062 3.703125 -0.21875 3.359375 L 1.03125 0.921875 C 1.300781 1.160156 1.609375 1.34375 1.953125 1.46875 C 2.296875 1.601562 2.632812 1.671875 2.96875 1.671875 C 3.4375 1.671875 3.816406 1.554688 4.109375 1.328125 C 4.398438 1.097656 4.664062 0.722656 4.90625 0.203125 L 4.953125 0.09375 L -0.171875 -11.84375 L 3.359375 -11.84375 L 6.6875 -3.8125 L 10.03125 -11.84375 Z M 13.328125 -11.84375 "/></g></g></g><g fill="#ffffff" fill-opacity="1"><g transform="translate(185.845084, 185.50266)"><g><path d="M 13.140625 -8.015625 C 14.015625 -7.734375 14.703125 -7.265625 15.203125 -6.609375 C 15.703125 -5.953125 15.953125 -5.148438 15.953125 -4.203125 C 15.953125 -2.847656 15.425781 -1.804688 14.375 -1.078125 C 13.320312 -0.359375 11.796875 0 9.796875 0 L 1.828125 0 L 1.828125 -15.40625 L 9.34375 -15.40625 C 11.226562 -15.40625 12.671875 -15.046875 13.671875 -14.328125 C 14.679688 -13.609375 15.1875 -12.628906 15.1875 -11.390625 C 15.1875 -10.648438 15.003906 -9.984375 14.640625 -9.390625 C 14.285156 -8.804688 13.785156 -8.347656 13.140625 -8.015625 Z M 5.375 -12.71875 L 5.375 -9.09375 L 8.90625 -9.09375 C 9.789062 -9.09375 10.457031 -9.242188 10.90625 -9.546875 C 11.363281 -9.859375 11.59375 -10.3125 11.59375 -10.90625 C 11.59375 -11.507812 11.363281 -11.960938 10.90625 -12.265625 C 10.457031 -12.566406 9.789062 -12.71875 8.90625 -12.71875 Z M 9.53125 -2.6875 C 10.46875 -2.6875 11.171875 -2.835938 11.640625 -3.140625 C 12.117188 -3.453125 12.359375 -3.929688 12.359375 -4.578125 C 12.359375 -5.847656 11.414062 -6.484375 9.53125 -6.484375 L 5.375 -6.484375 L 5.375 -2.6875 Z M 9.53125 -2.6875 "/></g></g></g><g fill="#ffffff" fill-opacity="1"><g transform="translate(201.660089, 185.50266)"><g><path d="M 7.21875 0.171875 C 5.96875 0.171875 4.847656 -0.0859375 3.859375 -0.609375 C 2.867188 -1.128906 2.09375 -1.847656 1.53125 -2.765625 C 0.976562 -3.691406 0.703125 -4.742188 0.703125 -5.921875 C 0.703125 -7.085938 0.976562 -8.132812 1.53125 -9.0625 C 2.09375 -9.988281 2.867188 -10.710938 3.859375 -11.234375 C 4.847656 -11.753906 5.96875 -12.015625 7.21875 -12.015625 C 8.46875 -12.015625 9.582031 -11.753906 10.5625 -11.234375 C 11.539062 -10.710938 12.304688 -9.988281 12.859375 -9.0625 C 13.421875 -8.132812 13.703125 -7.085938 13.703125 -5.921875 C 13.703125 -4.742188 13.421875 -3.691406 12.859375 -2.765625 C 12.304688 -1.847656 11.539062 -1.128906 10.5625 -0.609375 C 9.582031 -0.0859375 8.46875 0.171875 7.21875 0.171875 Z M 7.21875 -2.640625 C 8.09375 -2.640625 8.8125 -2.9375 9.375 -3.53125 C 9.945312 -4.125 10.234375 -4.921875 10.234375 -5.921875 C 10.234375 -6.910156 9.945312 -7.703125 9.375 -8.296875 C 8.8125 -8.898438 8.09375 -9.203125 7.21875 -9.203125 C 6.332031 -9.203125 5.601562 -8.898438 5.03125 -8.296875 C 4.46875 -7.703125 4.1875 -6.910156 4.1875 -5.921875 C 4.1875 -4.921875 4.46875 -4.125 5.03125 -3.53125 C 5.601562 -2.9375 6.332031 -2.640625 7.21875 -2.640625 Z M 7.21875 -2.640625 "/></g></g></g><g fill="#ffffff" fill-opacity="1"><g transform="translate(215.055526, 185.50266)"><g><path d="M 4.859375 -10.28125 C 5.273438 -10.84375 5.828125 -11.269531 6.515625 -11.5625 C 7.210938 -11.863281 8.019531 -12.015625 8.9375 -12.015625 L 8.9375 -8.84375 C 8.550781 -8.875 8.289062 -8.890625 8.15625 -8.890625 C 7.175781 -8.890625 6.40625 -8.613281 5.84375 -8.0625 C 5.289062 -7.507812 5.015625 -6.6875 5.015625 -5.59375 L 5.015625 0 L 1.578125 0 L 1.578125 -11.84375 L 4.859375 -11.84375 Z M 4.859375 -10.28125 "/></g></g></g><g fill="#ffffff" fill-opacity="1"><g transform="translate(223.523836, 185.50266)"><g><path d="M 7.296875 0.171875 C 6.035156 0.171875 4.898438 -0.0859375 3.890625 -0.609375 C 2.890625 -1.128906 2.109375 -1.847656 1.546875 -2.765625 C 0.984375 -3.691406 0.703125 -4.742188 0.703125 -5.921875 C 0.703125 -7.085938 0.984375 -8.132812 1.546875 -9.0625 C 2.109375 -9.988281 2.890625 -10.710938 3.890625 -11.234375 C 4.898438 -11.753906 6.035156 -12.015625 7.296875 -12.015625 C 8.546875 -12.015625 9.632812 -11.753906 10.5625 -11.234375 C 11.5 -10.710938 12.179688 -9.96875 12.609375 -9 L 9.9375 -7.5625 C 9.320312 -8.65625 8.4375 -9.203125 7.28125 -9.203125 C 6.382812 -9.203125 5.644531 -8.90625 5.0625 -8.3125 C 4.476562 -7.726562 4.1875 -6.929688 4.1875 -5.921875 C 4.1875 -4.910156 4.476562 -4.109375 5.0625 -3.515625 C 5.644531 -2.929688 6.382812 -2.640625 7.28125 -2.640625 C 8.457031 -2.640625 9.34375 -3.179688 9.9375 -4.265625 L 12.609375 -2.8125 C 12.179688 -1.875 11.5 -1.140625 10.5625 -0.609375 C 9.632812 -0.0859375 8.546875 0.171875 7.296875 0.171875 Z M 7.296875 0.171875 "/></g></g></g><g fill="#ffffff" fill-opacity="1"><g transform="translate(235.511524, 185.50266)"><g><path d="M 13.171875 -5.875 C 13.171875 -5.832031 13.148438 -5.523438 13.109375 -4.953125 L 4.15625 -4.953125 C 4.320312 -4.210938 4.703125 -3.628906 5.296875 -3.203125 C 5.898438 -2.785156 6.648438 -2.578125 7.546875 -2.578125 C 8.160156 -2.578125 8.707031 -2.664062 9.1875 -2.84375 C 9.664062 -3.03125 10.109375 -3.320312 10.515625 -3.71875 L 12.34375 -1.734375 C 11.226562 -0.460938 9.597656 0.171875 7.453125 0.171875 C 6.117188 0.171875 4.9375 -0.0859375 3.90625 -0.609375 C 2.882812 -1.128906 2.09375 -1.847656 1.53125 -2.765625 C 0.976562 -3.691406 0.703125 -4.742188 0.703125 -5.921875 C 0.703125 -7.078125 0.976562 -8.117188 1.53125 -9.046875 C 2.082031 -9.984375 2.835938 -10.710938 3.796875 -11.234375 C 4.753906 -11.753906 5.828125 -12.015625 7.015625 -12.015625 C 8.171875 -12.015625 9.21875 -11.765625 10.15625 -11.265625 C 11.101562 -10.765625 11.84375 -10.046875 12.375 -9.109375 C 12.90625 -8.179688 13.171875 -7.101562 13.171875 -5.875 Z M 7.046875 -9.421875 C 6.265625 -9.421875 5.609375 -9.195312 5.078125 -8.75 C 4.554688 -8.3125 4.234375 -7.710938 4.109375 -6.953125 L 9.9375 -6.953125 C 9.820312 -7.703125 9.5 -8.300781 8.96875 -8.75 C 8.445312 -9.195312 7.804688 -9.421875 7.046875 -9.421875 Z M 7.046875 -9.421875 "/></g></g></g><g fill="#ffffff" fill-opacity="1"><g transform="translate(248.379054, 185.50266)"><g><path d="M 1.578125 -16.328125 L 5.015625 -16.328125 L 5.015625 0 L 1.578125 0 Z M 1.578125 -16.328125 "/></g></g></g><g fill="#ffffff" fill-opacity="1"><g transform="translate(253.987872, 185.50266)"><g><path d="M 1.578125 -16.328125 L 5.015625 -16.328125 L 5.015625 0 L 1.578125 0 Z M 1.578125 -16.328125 "/></g></g></g><g fill="#ffffff" fill-opacity="1"><g transform="translate(259.59669, 185.50266)"><g><path d="M 13.171875 -5.875 C 13.171875 -5.832031 13.148438 -5.523438 13.109375 -4.953125 L 4.15625 -4.953125 C 4.320312 -4.210938 4.703125 -3.628906 5.296875 -3.203125 C 5.898438 -2.785156 6.648438 -2.578125 7.546875 -2.578125 C 8.160156 -2.578125 8.707031 -2.664062 9.1875 -2.84375 C 9.664062 -3.03125 10.109375 -3.320312 10.515625 -3.71875 L 12.34375 -1.734375 C 11.226562 -0.460938 9.597656 0.171875 7.453125 0.171875 C 6.117188 0.171875 4.9375 -0.0859375 3.90625 -0.609375 C 2.882812 -1.128906 2.09375 -1.847656 1.53125 -2.765625 C 0.976562 -3.691406 0.703125 -4.742188 0.703125 -5.921875 C 0.703125 -7.078125 0.976562 -8.117188 1.53125 -9.046875 C 2.082031 -9.984375 2.835938 -10.710938 3.796875 -11.234375 C 4.753906 -11.753906 5.828125 -12.015625 7.015625 -12.015625 C 8.171875 -12.015625 9.21875 -11.765625 10.15625 -11.265625 C 11.101562 -10.765625 11.84375 -10.046875 12.375 -9.109375 C 12.90625 -8.179688 13.171875 -7.101562 13.171875 -5.875 Z M 7.046875 -9.421875 C 6.265625 -9.421875 5.609375 -9.195312 5.078125 -8.75 C 4.554688 -8.3125 4.234375 -7.710938 4.109375 -6.953125 L 9.9375 -6.953125 C 9.820312 -7.703125 9.5 -8.300781 8.96875 -8.75 C 8.445312 -9.195312 7.804688 -9.421875 7.046875 -9.421875 Z M 7.046875 -9.421875 "/></g></g></g></svg>